# xmcd
#
# Track frame offsets: 
#        150
#        24115
#        42245
#        56700
#        77132
#        97507
#        110775
#        135570
#        166022
#
# Disc length: 2509 seconds
#
# Revision: 3
# Processed by: cddbd v1.5.2PL0 Copyright (c) Steve Scherf et al.
# Submitted via: ExactAudioCopy v1.0b1
#
DISCID=6209cb09
DTITLE=Clarence Gatemouth Brown - Pressure Cooker
DYEAR=1985
DGENRE=Electric Blues - Texas Blues
TTITLE0=She winked her eye
TTITLE1=Slow down
TTITLE2=Just lippin'
TTITLE3=My time is expensive
TTITLE4=Ain't nobody here but us chickens
TTITLE5=Pressure cooker
TTITLE6=Ain't that just like a woman
TTITLE7=Deep, deep water
TTITLE8=Cold strings
EXTD=
EXTT0=
EXTT1=
EXTT2=
EXTT3=
EXTT4=
EXTT5=
EXTT6=
EXTT7=
EXTT8=
PLAYORDER=
